<svg xmlns="http://www.w3.org/2000/svg" viewBox="0 0 64 64" width="64" height="64">
  <defs>
    <linearGradient id="bg" x1="0" y1="0" x2="1" y2="1">
      <stop offset="0" stop-color="#5EA03A"/>
      <stop offset="0.55" stop-color="#3a6ea0"/>
      <stop offset="1" stop-color="#c94f9a"/>
    </linearGradient>
    <linearGradient id="star" x1="0" y1="0" x2="0" y2="1">
      <stop offset="0" stop-color="#fff6d8"/>
      <stop offset="1" stop-color="#ffd24a"/>
    </linearGradient>
  </defs>
  <rect x="2" y="2" width="60" height="60" rx="15" fill="url(#bg)"/>
  <rect x="2" y="2" width="60" height="30" rx="15" fill="#ffffff" opacity="0.10"/>
  <g stroke="#e0a41f" stroke-width="1.4" stroke-linejoin="round">
    <path fill="url(#star)" d="M32 9.5 L37.1 24 L52 24.4 L40.1 33.5 L44.4 48 L32 39.4 L19.6 48 L23.9 33.5 L12 24.4 L26.9 24 Z"/>
  </g>
  <g fill="#4a3a12">
    <circle cx="27.6" cy="29.4" r="1.7"/>
    <circle cx="36.4" cy="29.4" r="1.7"/>
  </g>
  <path d="M27.2 33.8 Q32 38.2 36.8 33.8" fill="none" stroke="#4a3a12" stroke-width="2" stroke-linecap="round"/>
  <g fill="#ffffff">
    <path d="M50 11 l1.2 3 3 1.2 -3 1.2 -1.2 3 -1.2 -3 -3 -1.2 3 -1.2 Z" opacity="0.95"/>
    <circle cx="14" cy="15" r="1.5" opacity="0.85"/>
  </g>
</svg>
